# xmcd
#
# Track frame offsets:
#	150
#	16175
#	32300
#	46692
#	65177
#	79192
#	89982
#	104275
#	114975
#	125775
#	139725
#	153840
#	166650
#	178162
#	204865
#	221895
#	239182
#	255825
#	272692
#	284567
#	299952
#	313870
#
# Disc length: 4295 seconds
#
# Revision: 0
# Processed by: cddbd v1.5.2PL0 Copyright (c) Steve Scherf et al.
# Submitted via: EZCDAudioConverter 2.0.5.1
#
DISCID=4d10c516
DTITLE=Charles Aznavour - Ses plus grands succes (pour vous au Quebec)
DYEAR=2002
DGENRE=Chanson francaise
TTITLE0=Emmenez-moi
TTITLE1=Et moi dans mon coin
TTITLE2=Je te rechaufferai
TTITLE3=La boheme
TTITLE4=Dans tes bras
TTITLE5=Les comediens
TTITLE6=Il faut savoir
TTITLE7=Hier encore
TTITLE8=For me... Formidable
TTITLE9=J'en deduis que je t'aime
TTITLE10=Mes emmerdes
TTITLE11=Et pourtant
TTITLE12=Sur ma vie
TTITLE13=Les plaisirs demodes
TTITLE14=La Mamma
TTITLE15=Les deux guitares
TTITLE16=Tu t'laisses aller
TTITLE17=L'amour c'est comme un jour
TTITLE18=Le temps
TTITLE19=Je m'voyais deja
TTITLE20=Plus bleu que tes yeux
TTITLE21=Reste
EXTD=
EXTT0=
EXTT1=
EXTT2=
EXTT3=
EXTT4=
EXTT5=
EXTT6=
EXTT7=
EXTT8=
EXTT9=
EXTT10=
EXTT11=
EXTT12=
EXTT13=
EXTT14=
EXTT15=
EXTT16=
EXTT17=
EXTT18=
EXTT19=
EXTT20=
EXTT21=
PLAYORDER=
